<svg width="135" height="47" viewBox="0 0 135 47" fill="none" xmlns="http://www.w3.org/2000/svg">
<path d="M76.92 31.72C76.92 33.7467 78.1467 34.76 80.6 34.76H85.08V28.68H80.6C78.1467 28.68 76.92 29.6933 76.92 31.72ZM85.08 26.44C85.08 24.904 84.6747 23.7733 83.864 23.048C83.0747 22.3227 82.04 21.96 80.76 21.96C79.8 21.96 78.8613 22.1093 77.944 22.408C77.0267 22.6853 76.2053 23.0693 75.48 23.56L74.36 21.64C74.8293 21.32 75.3413 21.0427 75.896 20.808C76.472 20.5733 77.0587 20.3813 77.656 20.232C78.2533 20.0613 78.84 19.9333 79.416 19.848C80.0133 19.7627 80.568 19.72 81.08 19.72C82.4453 19.72 83.6507 19.88 84.696 20.2C85.7413 20.52 86.6267 20.9787 87.352 21.576C88.0773 22.1733 88.6213 22.888 88.984 23.72C89.368 24.5307 89.56 25.4373 89.56 26.44V37H80.6C77.6987 37 75.5547 36.5627 74.168 35.688C72.8027 34.8133 72.12 33.4907 72.12 31.72C72.12 29.9493 72.8027 28.6267 74.168 27.752C75.5547 26.8773 77.6987 26.44 80.6 26.44H85.08ZM106.505 22.6H102.665C101.214 22.6 100.105 22.9947 99.337 23.784C98.569 24.552 98.185 25.704 98.185 27.24V37H93.705V27.24C93.705 25.064 94.3877 23.3787 95.753 22.184C97.1397 20.968 99.1237 20.36 101.705 20.36H106.505V22.6ZM113.693 37H109.213V20.68H113.693V37ZM113.853 16.36C113.853 17 113.629 17.5653 113.181 18.056C112.754 18.5253 112.178 18.76 111.453 18.76C110.727 18.76 110.141 18.5253 109.693 18.056C109.266 17.5653 109.053 17 109.053 16.36C109.053 15.72 109.266 15.1653 109.693 14.696C110.141 14.2053 110.727 13.96 111.453 13.96C112.157 13.96 112.733 14.2053 113.181 14.696C113.629 15.1653 113.853 15.72 113.853 16.36ZM122.014 31.72C122.014 33.7467 123.24 34.76 125.694 34.76H130.174V28.68H125.694C123.24 28.68 122.014 29.6933 122.014 31.72ZM130.174 26.44C130.174 24.904 129.768 23.7733 128.958 23.048C128.168 22.3227 127.134 21.96 125.854 21.96C124.894 21.96 123.955 22.1093 123.038 22.408C122.12 22.6853 121.299 23.0693 120.574 23.56L119.454 21.64C119.923 21.32 120.435 21.0427 120.99 20.808C121.566 20.5733 122.152 20.3813 122.75 20.232C123.347 20.0613 123.934 19.9333 124.51 19.848C125.107 19.7627 125.662 19.72 126.174 19.72C127.539 19.72 128.744 19.88 129.79 20.2C130.835 20.52 131.72 20.9787 132.446 21.576C133.171 22.1733 133.715 22.888 134.078 23.72C134.462 24.5307 134.654 25.4373 134.654 26.44V37H125.694C122.792 37 120.648 36.5627 119.262 35.688C117.896 34.8133 117.214 33.4907 117.214 31.72C117.214 29.9493 117.896 28.6267 119.262 27.752C120.648 26.8773 122.792 26.44 125.694 26.44H130.174Z" fill="white"/>
<path d="M53.1489 38.81C55.7783 38.81 58.2916 38.3653 60.6889 37.476C63.1249 36.548 65.4449 35.0593 67.6489 33.01L70.5489 36.49C68.3449 38.5393 65.6769 40.1633 62.5449 41.362C59.4129 42.5607 56.0876 43.16 52.5689 43.16C48.9343 43.16 45.6476 42.696 42.7089 41.768C39.8089 40.84 37.3149 39.4673 35.2269 37.65C33.1776 35.8327 31.5922 33.59 30.4709 30.922C29.3496 28.254 28.7889 25.18 28.7889 21.7C28.7889 18.22 29.3302 15.146 30.4129 12.478C31.5342 9.81 33.1002 7.56733 35.1109 5.75C37.1603 3.93266 39.6156 2.56 42.4769 1.632C45.3383 0.703998 48.5089 0.239998 51.9889 0.239998C55.5076 0.239998 58.8329 0.839332 61.9649 2.038C65.0969 3.23666 67.7649 4.86066 69.9689 6.91L67.0689 10.39C64.8649 8.34066 62.5449 6.87133 60.1089 5.982C57.7116 5.054 55.1982 4.59 52.5689 4.59C50.4809 4.59 48.5283 4.938 46.7109 5.634C44.8936 6.29133 43.3276 7.316 42.0129 8.708C40.6983 10.1 39.6543 11.8787 38.8809 14.044C38.1462 16.1707 37.7789 18.7227 37.7789 21.7C37.7789 24.6773 38.1462 27.2487 38.8809 29.414C39.6543 31.5407 40.7176 33.3 42.0709 34.692C43.4629 36.084 45.0869 37.128 46.9429 37.824C48.8376 38.4813 50.9063 38.81 53.1489 38.81Z" fill="#A45CDD"/>
<path d="M16.7511 46.28C15.2151 46.28 13.6791 46.152 12.1431 45.896C10.6498 45.64 9.19908 45.2773 7.79108 44.808C6.38308 44.3387 5.08175 43.8053 3.88708 43.208C2.69242 42.568 1.64708 41.8853 0.751084 41.16L3.63108 37.32C5.55108 38.7707 7.49242 39.8373 9.45508 40.52C11.4604 41.16 13.6791 41.48 16.1111 41.48C17.8604 41.48 19.4818 41.224 20.9751 40.712C22.5111 40.1573 23.8338 39.2827 24.9431 38.088C26.0951 36.8933 26.9911 35.3787 27.6311 33.544C28.2711 31.6667 28.5911 29.4053 28.5911 26.76V5H13.5511V0.199997H37.8711V26.76C37.8711 30.0453 37.3591 32.904 36.3351 35.336C35.3538 37.768 33.9458 39.7947 32.1111 41.416C30.2764 43.0373 28.0578 44.2533 25.4551 45.064C22.8524 45.8747 19.9511 46.28 16.7511 46.28Z" fill="white"/>
</svg>
